<svg width="20" height="20" viewBox="0 0 20 20" fill="none" xmlns="http://www.w3.org/2000/svg">
<path d="M10 0.25C8.07164 0.25 6.18657 0.821828 4.58319 1.89317C2.97982 2.96451 1.73013 4.48726 0.992179 6.26884C0.254225 8.05042 0.061142 10.0108 0.437348 11.9021C0.813554 13.7934 1.74215 15.5307 3.10571 16.8943C4.46928 18.2579 6.20656 19.1865 8.09787 19.5627C9.98919 19.9389 11.9496 19.7458 13.7312 19.0078C15.5127 18.2699 17.0355 17.0202 18.1068 15.4168C19.1782 13.8134 19.75 11.9284 19.75 10C19.7473 7.41498 18.7192 4.93661 16.8913 3.10872C15.0634 1.28084 12.585 0.25273 10 0.25ZM14.2806 10.5306L11.2806 13.5306C11.1399 13.6714 10.949 13.7504 10.75 13.7504C10.551 13.7504 10.3601 13.6714 10.2194 13.5306C10.0786 13.3899 9.99959 13.199 9.99959 13C9.99959 12.801 10.0786 12.6101 10.2194 12.4694L11.9397 10.75H6.25C6.05109 10.75 5.86033 10.671 5.71967 10.5303C5.57902 10.3897 5.5 10.1989 5.5 10C5.5 9.80109 5.57902 9.61032 5.71967 9.46967C5.86033 9.32902 6.05109 9.25 6.25 9.25H11.9397L10.2194 7.53063C10.0786 7.38989 9.99959 7.19902 9.99959 7C9.99959 6.80098 10.0786 6.61011 10.2194 6.46937C10.3601 6.32864 10.551 6.24958 10.75 6.24958C10.949 6.24958 11.1399 6.32864 11.2806 6.46937L14.2806 9.46937C14.3504 9.53903 14.4057 9.62175 14.4434 9.7128C14.4812 9.80384 14.5006 9.90144 14.5006 10C14.5006 10.0986 14.4812 10.1962 14.4434 10.2872C14.4057 10.3783 14.3504 10.461 14.2806 10.5306Z" fill="#2A2E33"/>
</svg>
